<svg width="26" height="46" viewBox="0 0 26 46" fill="none" xmlns="http://www.w3.org/2000/svg">
<path d="M9.2888 32.7273V32.4716C9.31721 29.7585 9.6013 27.5994 10.1411 25.9943C10.6808 24.3892 11.4479 23.0895 12.4422 22.0952C13.4365 21.1009 14.6297 20.1847 16.0218 19.3466C16.8598 18.8352 17.6127 18.2315 18.2803 17.5355C18.9479 16.8253 19.4735 16.0085 19.857 15.0852C20.2547 14.1619 20.4536 13.1392 20.4536 12.017C20.4536 10.625 20.1269 9.41761 19.4735 8.39489C18.82 7.37216 17.9465 6.58381 16.8527 6.02983C15.759 5.47585 14.5445 5.19886 13.2093 5.19886C12.0445 5.19886 10.9223 5.44034 9.84277 5.92329C8.76323 6.40625 7.86124 7.16619 7.13681 8.20312C6.41238 9.24006 5.99334 10.5966 5.87971 12.2727H0.510387C0.624023 9.85795 1.24902 7.79119 2.38539 6.07244C3.53596 4.35369 5.04874 3.03977 6.92374 2.13068C8.81294 1.22159 10.9081 0.767044 13.2093 0.767044C15.7093 0.767044 17.8825 1.2642 19.7291 2.25852C21.5899 3.25284 23.0246 4.61648 24.0331 6.34943C25.0558 8.08238 25.5672 10.0568 25.5672 12.2727C25.5672 13.8352 25.3257 15.2486 24.8428 16.5128C24.374 17.777 23.6922 18.9062 22.7973 19.9006C21.9166 20.8949 20.8513 21.7756 19.6013 22.5426C18.3513 23.3239 17.3499 24.1477 16.597 25.0142C15.8442 25.8665 15.2973 26.8821 14.9564 28.0611C14.6155 29.2401 14.4308 30.7102 14.4024 32.4716V32.7273H9.2888ZM12.0161 45.3409C10.9649 45.3409 10.0629 44.9645 9.3101 44.2116C8.55726 43.4588 8.18084 42.5568 8.18084 41.5057C8.18084 40.4545 8.55726 39.5526 9.3101 38.7997C10.0629 38.0469 10.9649 37.6705 12.0161 37.6705C13.0672 37.6705 13.9692 38.0469 14.722 38.7997C15.4749 39.5526 15.8513 40.4545 15.8513 41.5057C15.8513 42.2017 15.6737 42.8409 15.3186 43.4233C14.9777 44.0057 14.5161 44.4744 13.9337 44.8295C13.3655 45.1705 12.7263 45.3409 12.0161 45.3409Z" fill="#99A4AB"/>
</svg>
