<svg width="13" height="13" viewBox="0 0 13 13" fill="none" xmlns="http://www.w3.org/2000/svg">
<path d="M7.29098 11.534L6.66298 12.162C6.60006 12.2253 6.52527 12.2754 6.44289 12.3097C6.36052 12.3439 6.27219 12.3616 6.18298 12.3616C6.09376 12.3616 6.00543 12.3439 5.92306 12.3097C5.84068 12.2754 5.76589 12.2253 5.70298 12.162L0.203975 6.663C0.140723 6.60009 0.0905289 6.52529 0.0562778 6.44292C0.0220268 6.36054 0.00439453 6.27221 0.00439453 6.183C0.00439453 6.09379 0.0220268 6.00545 0.0562778 5.92308C0.0905289 5.8407 0.140723 5.76591 0.203975 5.703L5.70398 0.202999C5.76689 0.139747 5.84168 0.0895525 5.92406 0.0553014C6.00643 0.0210504 6.09476 0.00341797 6.18398 0.00341797C6.27319 0.00341797 6.36152 0.0210504 6.44389 0.0553014C6.52627 0.0895525 6.60106 0.139747 6.66398 0.202999L7.29198 0.830999C7.35582 0.895034 7.40625 0.971158 7.44031 1.05492C7.47438 1.13868 7.4914 1.22839 7.49037 1.31881C7.48935 1.40923 7.4703 1.49853 7.43435 1.5815C7.39839 1.66446 7.34625 1.73943 7.28098 1.802L3.86898 5.053H12.004C12.0932 5.05287 12.1815 5.07034 12.264 5.10442C12.3464 5.13849 12.4213 5.1885 12.4844 5.25158C12.5475 5.31466 12.5975 5.38956 12.6316 5.472C12.6656 5.55444 12.6831 5.64279 12.683 5.732V6.638C12.6824 6.81764 12.6106 6.98973 12.4833 7.11648C12.356 7.24322 12.1836 7.31426 12.004 7.314H3.86898L7.27998 10.564C7.34571 10.6262 7.39827 10.701 7.43453 10.7839C7.47079 10.8668 7.49 10.9562 7.49103 11.0467C7.49205 11.1372 7.47487 11.2269 7.4405 11.3107C7.40614 11.3944 7.35529 11.4703 7.29098 11.534Z" fill="white"/>
</svg>
